<svg xmlns="http://www.w3.org/2000/svg" viewBox="0 0 288.57 27.96"><defs><style>.cls-1{fill:#ededed;}</style></defs><g id="Layer_2" data-name="Layer 2"><g id="Individuals"><path class="cls-1" d="M281.3,12.77c.14,0,.37.05.55.08C281.33,12.89,281.08,12.89,281.3,12.77Z"/><path class="cls-1" d="M288.57,12.82a39.68,39.68,0,0,1-6.72,0C283.51,12.62,288,12.46,288.57,12.82Z"/><path class="cls-1" d="M280.94,11.14c.78.18,1.56.35,2.34.5C281.92,11.77,282.16,11.37,280.94,11.14Z"/><polygon class="cls-1" points="281.81 12.12 281.69 12.46 280.44 12.08 281.81 12.12"/><path class="cls-1" d="M162.58,24.88a3.13,3.13,0,0,1,.32,1.86Z"/><path class="cls-1" d="M157.06,19.3a6.54,6.54,0,0,0-1.12-.33C156.27,18.89,156.55,19,157.06,19.3Z"/><path class="cls-1" d="M167.49,24.58l-1,.13A1.18,1.18,0,0,1,167.49,24.58Z"/><path class="cls-1" d="M227.45,18.68c.91.89,1.77,1.68,2.43,2.2C228.16,22,228,19.9,227.45,18.68Z"/><path class="cls-1" d="M131.88,4.1l-.22.85C131.4,4.59,131.27,4.24,131.88,4.1Z"/><path class="cls-1" d="M155.45,3.61a3.27,3.27,0,0,1-.1,1.25c-.09-.08-.19-.12-.28-.21Z"/><path class="cls-1" d="M171.27,22.63a.54.54,0,0,1,0-.11l.79.67C171.7,23.37,171.43,23.18,171.27,22.63Z"/><path class="cls-1" d="M124.27,3.56a7,7,0,0,1-1-1.68A1.55,1.55,0,0,1,124.27,3.56Z"/><path class="cls-1" d="M155.8,19s0,0,0,0l.15,0C155.89,19,155.85,19,155.8,19Z"/><path class="cls-1" d="M163.28,3.94c-.41-.13-.8-.21-1.25-.39A.91.91,0,0,1,163.28,3.94Z"/><path class="cls-1" d="M227.45,18.68l-.77-.75C227,17.94,227.26,18.24,227.45,18.68Z"/><path class="cls-1" d="M275,13.83c-.76.06-.94-.25-1.09-.56A3,3,0,0,1,275,13.83Z"/><path class="cls-1" d="M1.85,19.1l-.3,0Z"/><path class="cls-1" d="M30.83,20.61a1.8,1.8,0,0,1,.39.27A.28.28,0,0,1,30.83,20.61Z"/><path class="cls-1" d="M57.29,10.07c-1.87.87-3.85-.3-5.49-.15l.57.48-1.67-.27,0,.77c-2.75-.05-6.13,1-7.15,0L43.93,12,41,11.46l1.67.56c-3.25.54-8.22.3-8.92.4l.3.32c-.53.24-1,0-1.51,0l.44.48c-4.92.4-6.25,1.56-11.74,1.6-1.5.24.83.06.86.29a6.64,6.64,0,0,1-3.16.12c.45.55,2.76.21,1,.83-1.25-.22.86.51-1.34.52l-.87-.69c-1.22.22-.24.59-2.17.65-2.21-.13,2.68-1-.87-.82-1.78.26-3.72,1.76-7.17,1.6-3,.4,1.58.75-2.55.75l2.65.27c-.68.16-.24.41-2,.3A10.06,10.06,0,0,0,3,18.25c3.87.31-3.37.46.23.9l-1.34,0c.17,0,.21.06.12.08l-1.78,0c1.1.11,3.72.27,2.51.52L.12,19.58c.69.25-.26.27-.1.43,2.53.36,5.07.78,7.61,1.23-.3-.21-1.4-.42-1-.55,2,0,1.66.48,3.56.4l-.85-.32c.16.1.42.16,0,.15-.67.1-1-.11-1-.26a6.33,6.33,0,0,1,3.17.38c2.46.15.49-.6,1-.66,1.29.69,4.12.23,5.66.63l-1-.51a9.74,9.74,0,0,1,4.66.31l-.44-.43c2.62.23,3.88-1.29,5.9.42l-.28-.33c1.07-.09,2.69-.42,3.73.14a.64.64,0,0,1,.63-.51c.59.71,1.7.23,3.27.13-1-.22-.73-1.16-1.84-1.39,2.42-1,2.25,1.07,4.3,1.11,1.22-.49-1.11-.57-1.41-.94a10.31,10.31,0,0,0,4.66-.72c1.47-.42,2.8-.7,3.82.41l-1.35.7c1.27.49,2,.51,1.79.29a.61.61,0,0,1-.69-.35c3.77-1.2,6,1.78,9.8,1.43-.3-.48-.85-.65-.88-1.05,1.75-.49,1.77,2.53,4.6,1.61L57,20.74c.94-.33,1.66.53,1.53.69,0-2.33,6,.32,8-2.9,1.42,1.35,5.44,2.57,6.65,1.78,1.72-1.61-1.59-1.77-1-3.25,1.37,0,2.12,1.44,4.16.9.06,1.57-4,3-.12,4l.52-.82a2.24,2.24,0,0,1-1.5.19c-1.13-.91.65-1,.9-1.42l4.13.52c.34,1.7-2.14,1.24-2.38,1.66C81.1,21.86,85,19.33,88,20.54l-.3-.68c3.9,1.6,2.19-3.38,5.33-.39,1.62-.49-.62-2,1.83-2.17.69,0,.3.71.18.95,3,.67,1.29-1.85,4.11-.08l-.64-2.07c3.35,1.32,6.9,5.13,9.76,4.23-.21-1.71-2-1.54-2.71-2.81,4,3,9.33.31,13,2-1,1.52,1.78,3.62-.5,4.85-.64-2.35-1.69-.83-2.93-1.12,1,2.53,3.12,2,5,1.34s3.62-1.45,4,.84l.49-1.85c.56.28,2,1.74,1,2.31l3.94-1.12c-1.42-1.5-4.42-4.79-5.3-2.77-1.17-2,1.6-1.31.55-3.6,2.72,3.13,1.61-1.33,4.37-.68-1.19,2.76,2.81,3.76,2.71,5.13.89-.51,2.91.82,3.7,1.81,1.6.32,5.2-2,7.77-.91-1-.94-2.54-2.17-2.46-4,1.27,1.06,2.64,1.05,2.83-1.15-4.51-3.94-1.33,5-5.4,2.42-1-2.44-2.15-3-4.23-3.7.91-1.39.49-2,.84-3.66,2.63,5.06,6.6.34,10,2.86,1.42,1.54.44,4.88,3.61,5.51l-2.68,1.59c3-1.43.73,1.59,3.21,2.26l-1-1.78c1.5-.31,2.06,0,2.92,1.33l-1.33-2.77c.81-.32,2.31-.64,2.36,1a5.32,5.32,0,0,0,.25-1.67c.17.46.56.76,1.51.69-.57-.33-1-.16-1-1,3.64.71.79-3,3-2.73-.37-.65.26-1.47,1.06-1.82,0,4.45,4.5,5.13,5.73,7.76v-.07l3.08,2c-.63-.41,0-1.66.89-2.13l-.15,0c1-.71-1.25-5.19,1.68-3.76l1.55,1.46c-.28-.18,0-.91.1-1.28l1.6,1.37c2.31-4.59,4.58,2.75,7.35.54-.8.38-2,0-1.55-1.54.54-.57,1.37,0,1.81.76l-.15-.57L184.22,25c-.47-1.79-3.48-2-2.18-3.94.75-2.37,2.34.16,3.31.36-.1,1.4-1.85,2.59,0,3.38.21-.68,1.89-2.11,1.06-3.13,1.87,1.45,4.57,2.35,6.26,4.89.51-.62-.32-1.22-.6-1.42l-.12.41c-1.13-.8-.25-3.65-2.39-2.19-.28-4.65,3.11-1.29,5-2l-3.11-3.16c5-6.52,12.06.35,17.14.28-1.46,1.5-2.73.15-2.48,3.81,3.19,1.64,2.76.85,5.92,1.43l-.28-.18c1.59-1.92,3.88,1.47,4.89-1.78-.74-1.92-2.27,2-2.39-2l4,.12c-1.29-2.26-4-.12-5.5-.62-1.08.27,2.21.47,1.74,3.08-3.7.08-4.6-2.48-6.5-6.25-1.17-2.81,1.56-2.91,2.25-2.94,2.44,4.16,5.93,5.88,9.57,3.91l2-3c1.87,2.59,1.2,7.76,4.47,6.89l-1-2c.7-.84,1.17-1.13,1.52-1.13-1.44-1.45-3-3.16-4.31-4.77,1.78-4.4,5.42,2.12,8.18,2.78-.15-.53-1.12-.66-1.43-1.74,2-.54,4.17.43,6.17,1.49s3.89,2.27,5.48,2.45c1.31-1.73-2.65-.94-2.05-3.5,1.69.9,3.53-1.29,4,.93-.79-3.17,3.82-.32.58-3.21,3-.7,6.15-.27,9.32.37s6.37,1.53,9.41,2A1.9,1.9,0,0,1,262,13c-2.06.07-5.09-.57-6.26-2.44,1.32-1.25,3.23,1.82,3.6,1-.7-.61-2.07-.64-2.12-1.92,1.73-1.3,2.76.74,4,1l-.66.57c3.89,1.67,2.21,3.95,6.29,3.14,1.46-1.29,0-1-.09-2.53,1,.55,4.06-.86,5.09.56l-2.48.12c1.75.38,3.39.35,4.6.73a1,1,0,0,0-.61-.62c1.39.37,3.16.26,3.88.89l.36-1.07c-.81.45-3.27.66-3.7-.06.22-1.1,2.72-.33,3.81-.4-4.81-.36-4.92-2.62-9-2l.69.51c-2.51,1.06-5.16-1.11-7.38-1.3a.88.88,0,0,0,.43-1.31,29,29,0,0,1-7.39.2,36.73,36.73,0,0,0-7.92,0l-1.74-2.53-.06,1.85c-2.73.67-.65-2.68-2.41-2.64.67,0,.56.35.7.84-3.22-2.44-1.73,1.66-3.52.95.89,2.16,3.45.92,2.71,3.62-3.22-2.3-8.12-1.19-8.68-6.27C228.3,5.58,220.94,1.94,216,1.17c-.66,1,.43.8.19,1.58-2-3.42-6.52,2.17-6.61-.82-.93.81-1.28,3-1.52,3.86a8.42,8.42,0,0,0-4.4-2.6l1.18.84-.12.42L203,3.26l.05-.19c-4-.85-8.55,0-12.21-3.07,2.11,1.89-.45,3.7.55,4.85-1.92-4.78-6.3-4.56-9.84-3.77,0,1-.23,1.79.2,2.54l-2.09-1.75L180,3c-3.67,1.1-7.78-3.48-10.17-1.11,1.51.36,1.54,1.29,1.72,2.76a21.8,21.8,0,0,1-8.25-.72,1.59,1.59,0,0,1,.3.85c-.81.43-1.8-.52-2.63-.94l-.08,2.08c-1.59-.81-3.61.38-5.52-1.07-.69,2.24-4.58-1.66-6.73-.56-.84-.41,1.85,2.1-.48,2.14-.41-4.14-3,.09-3.29-4.33l-2,1.76-.49-2.15c-1.65,4.21-2.67-1.61-5.21-.1.14.45.42.58.29.89-.83-.38-2.75-.48-1.29-1.7-1.37.14-6.05-.41-3.92,1.61-.17-1.18,1.76-.33,2.6,0-.07,1.82-2.14,1.27-2.62,3.25a4.77,4.77,0,0,0-.55-.76l-.27,1.12c-2.61-1.77-5.2-.2-7.12-2.51a1.21,1.21,0,0,1-1.43.94l-.08-2.14-2.73.3,1.34,3c-3,.82-5.17-2.46-7.64-2.7-.57,3.42-4.84-.79-6.92,2.34l2,.72c-4.13-.24-4.75,1.74-8.61,1,3.24-1.34,3.27-.66,8-3.79C103.37,5,99.85,2.25,95.52,4.53c.31.68,1.41,1,.36,1.89C95,5,91.77,6.87,92.38,5,91,5.77,90.84,7.43,90,7.74q-2.3-.86-4.59-1.64l.15.32c-3.83,2.33-7.45,1.95-11.07,1.49s-7.25-1-11.11.12l.16.7-2-.82c1.53.51-.64,1-.75,1.58-1.66-.33-3.33-.64-5-.91C55.76,9.17,56.08,10.46,57.29,10.07ZM122.7,4.8l1.18.06a.62.62,0,0,1,.75,0l-.75,0C123.28,5.19,122.86,6.12,122.7,4.8ZM231.29,5c.59,1.27-.81.34-1.2.5L232,5.9C232.27,5.2,231.57,5.19,231.29,5ZM123,18.6,122.41,20l-.86-1.12Zm-16.71.19,1.68.75-.13.27-1.67-.76ZM87.58,9.69a1.71,1.71,0,0,1,.33.2,1.17,1.17,0,0,1-.33-.2C86.28,9,85.81,11,84.73,9.17,86,7.4,86.83,9,87.58,9.69ZM116.9,7.55c.57.23.84.35,1.25.18-.31-.82-1.45-1.95-.64-2.31.59.92,2.5,1,2.56,2.43C118.38,6.46,117.28,10.43,116.9,7.55ZM156.22,6l-.41.21,1.56,1.21Zm7.17,1.23c.89,2.21,3.07,1.69,4.59,2.12.35-2-1.23-4.24-3-3.86C162.87,4,164.26,8.6,163.39,7.27Zm-59.25,3.65.44,1.12-.4.15,1.67.67c-2.14,1.66-3.74-1.19-4.86-1.6C102,11.3,104.66,14,104.14,10.92Zm74.48-3.51c1.55,1.41,4.34,3.2,4.12,5,0-3.37-2.2-4.77-2.89-4.71C179.46,7.92,179.17,7.75,178.62,7.41Zm0,6.19c-2.23-1.43-2.41-2.95-4.16-5.85,2.16-1.52,2.84,2.64,2.61,4.38,1.55,1.46,1.22-.64,2-1.08Zm-2.47-9-.89.52c-1,1.43-1.18,5-2.75,1.54l2.75-1.54A1,1,0,0,1,176.19,4.55Zm18.56-.94-.93-1.16c.89.08,1,.61.93,1.16l.77,1C193.58,5.93,194.57,4.69,194.75,3.61ZM180.61,5.29,178,5.14C178.18,6.67,179.79,5.76,180.61,5.29Zm13.62,1.44c-1.1.26-4,.84-3.56.6C190.89,5.49,193.51,5.74,194.23,6.73Zm57.68,4.62-1.64-.15L251,9.5Zm-19.27,1.46.39-1.07,1,.16Zm-17.78.41a4.43,4.43,0,0,0-.15-1.72,1.78,1.78,0,0,1-.64-1c.25,0,.49.44.64,1A1.63,1.63,0,0,0,217,11c-.31-1.16-1.4-.94-1.84-1.73,1.57-2.75,5.39,5.55,4.19-2.39.71,1,3.11,3.05,2.32,4.4-1.87-.46-5.39.41-6.77,1.94-.08.43-.23.77-.55.84A2.18,2.18,0,0,1,214.86,13.22Zm-23.94,2.23c-.68-.19-1-.43-1.11-.7a3.15,3.15,0,0,1-.9-2.65c1.42,1,.54,1.92.9,2.65A2.25,2.25,0,0,0,190.92,15.45Zm-4.23.57,2.23,1.53-1.14-1.77,3.38,3.32C189.29,20.78,187,18.2,186.69,16ZM186,17.6l-.5-1.94.74,2-.24,0,.11.45L182.33,17Zm-37.95-3c-1.29,5.41,3.35,3.81,4.13,6.49.12-1.84,1.47-4.75-2.15-4.63,3.09-1.9,2,3.56,3.8-1.11-1.49.38-3.33-1-3.6-1.16l1.76-.24C150.88,10.61,149.26,15.72,148,14.63Zm-19,1.2-2.33-.07,2.21.36Zm-57.36,2c.18.8-2.79,2.15-3.53.73C69.6,18.38,71.25,18.45,71.62,17.86ZM47,17.94l2.62.48c-.48,1.37-2.33-.05-3.55.19C45.59,18,46.56,18.39,47,17.94Zm-17,.2L29.13,18l.9,1Zm1.17,1.33c-.52.44,1.27.7,1.69.65Zm-15.31.38h1.09l-1-.66Zm1.72-.71c.27.47.17,1.12,2.68.88.09-.53-.59-.53.33-1.15a6,6,0,0,0-1.91.13c.56.09,1.22-.13,1.38.22a5.41,5.41,0,0,1-2.48-.08.73.73,0,0,0-.56-.39C17,18.9,17.22,19,17.55,19.14Zm9.08-.54a1.94,1.94,0,0,0,.74-.26l.16.16a.82.82,0,0,1-.9.1,11.7,11.7,0,0,1-1.22.22c-.26.5,1.46.88,1.92,1.19-.82-.18-1.54-.69-2.62-.4.15.15,0,.25.7.26l-1.5.06c-1.72-.71-.09-.87,1.5-1.11.05-.11.17-.23.47-.36A1.19,1.19,0,0,1,26.63,18.6Zm-12-.83.82.09c.43.15.16.31.31.42C14.76,18.25,13.5,18,14.59,17.77Zm49.16-1.65c-.54.29.73,1.34,2,1l-.62,1.39c0-.91-2.5-.76-2.78-.85C61.84,16.46,62.81,17,63.75,16.12Zm57.1-1.7c.5,2.66,3.6,1,4.3,1.69C123.54,16.74,119.85,17.41,120.85,14.42Zm5.4-1.27c.86,0,1.1-.26,1,1.13.42.57,1.09-.19,1.51.38-1.64,1.26-1.58-1-2.55-1.51a3.07,3.07,0,0,1-.79-.09A1,1,0,0,1,126.25,13.15Zm-33.38,1-1.16-1.58-1.78.23ZM73.74,12.41c.16.8-1.88.92-2.31.56.15,1,1.51.82,2.6.88a1.33,1.33,0,0,0,.72.11,3,3,0,0,0-.72-.11c-.41-.23-.14-.78-.14-1.15l.53-.34-1.51-.19ZM40.17,13.83a2.43,2.43,0,0,1-2.18.32A3.31,3.31,0,0,1,40.17,13.83Zm43.66-3c-2,.71,1,1.68-.32,2.32l1.08-.17c-1.72,1.31-1.27-1.24-2.49-.82l.81-.27c.63-1.14-1.27-.66-1.44-1.51C82.42,9.82,84.64,10.5,83.83,10.79ZM38.24,13.55c-2,.82-1.69-.54-2.92-.52C36.92,12.29,36.71,13.49,38.24,13.55Zm32.6-4.83.13-.2-1.66-.39-.13.21Z"/><path class="cls-1" d="M35.84,20.24a3.07,3.07,0,0,1-1.11,0A6.89,6.89,0,0,1,35.84,20.24Z"/><path class="cls-1" d="M131.44,23.6a.85.85,0,0,1,.45-.74A1.12,1.12,0,0,1,131.44,23.6Z"/><path class="cls-1" d="M135.44,24.66h.15l.13.15Z"/><path class="cls-1" d="M273.86,14.94c.87.92-.82.27-1.5.34C273,15.19,273.29,14.44,273.86,14.94Z"/><path class="cls-1" d="M268.44,13.42a3,3,0,0,0,1.7.63A2.17,2.17,0,0,1,268.44,13.42Z"/><path class="cls-1" d="M272.84,13.73a7.88,7.88,0,0,1-2.7.32A5.81,5.81,0,0,1,272.84,13.73Z"/><path class="cls-1" d="M253.94,14.34c.86,1,2.48.39,2.48.39-3.53,1.17.75,1.93,1.06,2.61C255.27,17.2,255.23,15.89,253.94,14.34Z"/><path class="cls-1" d="M249.23,13.91a1.89,1.89,0,0,0,1-.25A1,1,0,0,1,249.23,13.91Z"/><path class="cls-1" d="M247.93,15.1c-1.23-.22-1.69-1.58-2.28-2.64,1.47-1,2.46,1.17,3.58,1.45C248.36,14,247.5,13.84,247.93,15.1Z"/><path class="cls-1" d="M210.26,25.14c.28.18,1,.13,1,1.13l-2,.17C208.37,25.89,209.85,25.37,210.26,25.14Z"/><path class="cls-1" d="M202.58,20.5c-1.65-.12-.74,2.5-1.58,1.92l0-3.49Z"/><path class="cls-1" d="M203.15,2.85l.49.34c-.18,0-.36-.08-.56-.12Z"/><path class="cls-1" d="M194.74,24.1,196,28C194.55,27,194.47,23.9,194.74,24.1Z"/><polygon class="cls-1" points="188.52 26.64 189.51 27.84 186.46 26.64 188.52 26.64"/><polygon class="cls-1" points="180.92 24.63 180.67 25.4 178.58 24.41 180.92 24.63"/><path class="cls-1" d="M98.6,20.64c-.35-2,3-1.14,3.91-1.66C101.9,21.5,99.86,18.16,98.6,20.64Z"/><path class="cls-1" d="M38.7,19.85l3.16.3C39.42,20.52,41.17,20.13,38.7,19.85Z"/></g></g></svg>