<svg xmlns="http://www.w3.org/2000/svg" viewBox="0 0 307.69 170.3"><defs><style>.cls-1{fill:#ededed;}.cls-2{fill:#e7401d;}</style></defs><g id="Layer_2" data-name="Layer 2"><g id="Individuals"><path class="cls-1" d="M290.41,155.11c.14,0,.36,0,.54.08C290.44,155.23,290.18,155.23,290.41,155.11Z"/><path class="cls-1" d="M297.68,155.16a39.8,39.8,0,0,1-6.73,0C292.62,155,297.1,154.8,297.68,155.16Z"/><path class="cls-1" d="M290,153.48c.78.18,1.57.35,2.35.5C291,154.1,291.27,153.71,290,153.48Z"/><polygon class="cls-1" points="290.91 154.46 290.8 154.8 289.54 154.42 290.91 154.46"/><path class="cls-1" d="M171.69,167.22a3.2,3.2,0,0,1,.31,1.86Z"/><path class="cls-1" d="M166.17,161.64a6.59,6.59,0,0,0-1.13-.33C165.37,161.22,165.66,161.35,166.17,161.64Z"/><path class="cls-1" d="M176.6,166.92l-1,.13A1.17,1.17,0,0,1,176.6,166.92Z"/><path class="cls-1" d="M236.56,161c.91.89,1.77,1.68,2.42,2.2C237.27,164.33,237.07,162.24,236.56,161Z"/><path class="cls-1" d="M141,146.44l-.21.85C140.51,146.93,140.38,146.57,141,146.44Z"/><path class="cls-1" d="M164.56,146a3.76,3.76,0,0,1-.1,1.25,3.06,3.06,0,0,1-.29-.21Z"/><path class="cls-1" d="M180.37,165c0-.05,0-.07,0-.12l.8.68C180.8,165.71,180.53,165.52,180.37,165Z"/><path class="cls-1" d="M133.38,145.9a6.65,6.65,0,0,1-1-1.68A1.57,1.57,0,0,1,133.38,145.9Z"/><path class="cls-1" d="M164.91,161.32s0,0,0,0l.14,0S165,161.3,164.91,161.32Z"/><path class="cls-1" d="M172.39,146.28c-.42-.13-.81-.21-1.25-.39A.91.91,0,0,1,172.39,146.28Z"/><path class="cls-1" d="M236.56,161l-.78-.75C236.14,160.27,236.37,160.58,236.56,161Z"/><path class="cls-1" d="M284.14,156.17c-.75.05-.94-.25-1.09-.57A3.05,3.05,0,0,1,284.14,156.17Z"/><path class="cls-1" d="M11,161.44l-.3,0Z"/><path class="cls-1" d="M39.93,163a1.59,1.59,0,0,1,.39.27A.28.28,0,0,1,39.93,163Z"/><path class="cls-1" d="M66.39,152.41c-1.87.86-3.84-.3-5.49-.16l.57.49-1.66-.27,0,.77c-2.74-.05-6.12,1-7.15,0l.34,1.09-2.92-.57,1.68.56c-3.26.53-8.23.29-8.92.4l.3.32c-.53.24-1,0-1.52,0l.44.48c-4.92.39-6.24,1.55-11.74,1.6-1.49.24.83.05.86.29a6.73,6.73,0,0,1-3.15.12c.44.55,2.75.2,1,.83-1.25-.22.87.51-1.33.52l-.88-.69c-1.22.22-.23.59-2.16.65-2.22-.13,2.68-1-.87-.82-1.78.26-3.72,1.75-7.18,1.6-3,.4,1.58.75-2.54.75l2.64.27c-.67.16-.24.41-2,.3a9.64,9.64,0,0,0-2.64-.39c3.87.31-3.38.46.23.9L11,161.44c.17,0,.21.05.13.08l-1.79,0c1.11.11,3.72.27,2.51.52l-2.58-.09c.69.25-.25.26-.1.43,2.54.35,5.08.77,7.62,1.23-.31-.21-1.4-.42-1-.55,2,0,1.66.48,3.57.4l-.85-.33c.15.11.42.16,0,.16-.67.1-1-.11-1-.26a6.29,6.29,0,0,1,3.16.38c2.47.15.5-.6,1-.66,1.29.69,4.12.23,5.65.63l-1-.51a9.71,9.71,0,0,1,4.66.31l-.43-.43c2.61.23,3.88-1.29,5.9.42l-.28-.33c1.07-.09,2.69-.42,3.72.14,0-.21.2-.46.63-.51.6.71,1.7.23,3.28.13-1.05-.22-.74-1.16-1.85-1.39,2.42-1,2.26,1.07,4.31,1.11,1.21-.49-1.12-.57-1.42-.94a10.33,10.33,0,0,0,4.67-.72c1.47-.42,2.79-.71,3.81.41l-1.34.7c1.27.49,1.95.51,1.79.29-.4.07-.54-.15-.69-.35,3.77-1.2,6,1.78,9.79,1.43-.29-.49-.84-.65-.87-1.05,1.75-.49,1.76,2.53,4.59,1.61l-.57-.6c.94-.32,1.66.53,1.54.7,0-2.33,6,.32,8-2.91,1.43,1.35,5.45,2.58,6.65,1.79,1.72-1.61-1.58-1.77-1-3.25,1.37-.05,2.12,1.44,4.15.9.07,1.57-4,3-.11,4l.52-.82a2.31,2.31,0,0,1-1.5.19c-1.13-.91.65-1,.89-1.42l4.14.52c.33,1.7-2.14,1.24-2.39,1.66,3.26-.22,7.14-2.75,10.2-1.55l-.3-.68c3.91,1.61,2.2-3.37,5.34-.38,1.61-.5-.63-2,1.82-2.17.7,0,.31.71.19,1,3,.67,1.29-1.86,4.11-.08l-.64-2.07c3.35,1.32,6.9,5.13,9.75,4.23-.2-1.71-2-1.55-2.71-2.81,4,3,9.33.31,13,2-1,1.52,1.77,3.61-.51,4.85-.64-2.35-1.69-.83-2.92-1.12,1,2.53,3.11,2,5,1.34s3.61-1.45,4,.84l.49-1.85c.56.28,2,1.74,1,2.31l3.95-1.12c-1.42-1.5-4.42-4.79-5.3-2.77-1.17-2,1.59-1.31.55-3.6,2.71,3.13,1.6-1.33,4.36-.68-1.19,2.76,2.81,3.76,2.71,5.13.89-.51,2.92.82,3.71,1.81,1.59.32,5.19-2,7.76-.91-1-.94-2.53-2.17-2.46-4,1.27,1.06,2.65,1.05,2.84-1.15-4.52-3.94-1.33,5-5.4,2.42-1-2.44-2.15-3-4.24-3.71.92-1.38.49-2,.85-3.65,2.63,5.06,6.59.34,9.95,2.86,1.43,1.54.45,4.88,3.62,5.51l-2.69,1.59c3-1.43.74,1.59,3.22,2.26l-1-1.78c1.5-.31,2.06,0,2.93,1.33L158.73,165c.8-.32,2.3-.64,2.35,1a5.33,5.33,0,0,0,.25-1.68c.17.47.56.77,1.51.7-.56-.33-1-.16-1-1,3.65.71.79-3,3.05-2.73-.37-.66.25-1.47,1-1.83,0,4.45,4.51,5.14,5.74,7.77l0-.07,3.08,2c-.62-.42,0-1.66.89-2.13l-.14,0c.95-.71-1.25-5.19,1.67-3.76l1.55,1.46c-.27-.18,0-.91.11-1.28l1.59,1.36c2.31-4.58,4.58,2.76,7.36.55-.81.38-2.05,0-1.55-1.54.53-.58,1.37,0,1.81.76l-.16-.57,5.44,3.33c-.47-1.79-3.48-2-2.17-3.94.75-2.38,2.34.16,3.31.36-.1,1.39-1.86,2.59,0,3.38.2-.68,1.89-2.11,1.06-3.13,1.87,1.45,4.56,2.34,6.26,4.89.51-.62-.33-1.22-.6-1.42l-.13.41c-1.12-.8-.24-3.65-2.39-2.19-.27-4.65,3.11-1.29,5-2l-3.11-3.16c5-6.52,12.07.35,17.15.28-1.46,1.5-2.74.15-2.49,3.81,3.19,1.64,2.76.85,5.92,1.42l-.27-.17c1.59-1.92,3.88,1.47,4.88-1.78-.74-1.92-2.27,2-2.39-2l4,.12c-1.29-2.26-4-.12-5.5-.62-1.09.27,2.21.47,1.74,3.08-3.71.08-4.61-2.49-6.5-6.25-1.17-2.81,1.56-2.91,2.25-2.94,2.44,4.16,5.92,5.88,9.56,3.91l2-3c1.88,2.59,1.2,7.76,4.47,6.89l-1-2c.71-.84,1.18-1.12,1.52-1.12-1.44-1.46-3-3.16-4.31-4.78,1.79-4.39,5.42,2.12,8.18,2.79-.15-.53-1.11-.66-1.42-1.74,2-.54,4.16.42,6.16,1.49s3.9,2.26,5.49,2.45c1.3-1.73-2.65-.94-2-3.5,1.68.9,3.52-1.3,4,.93-.79-3.17,3.82-.33.58-3.21a21.91,21.91,0,0,1,9.33.37c3.17.66,6.36,1.53,9.4,2a2,2,0,0,1-.07-1.73c-2.05.07-5.08-.57-6.26-2.44,1.33-1.25,3.23,1.82,3.6,1-.7-.61-2.07-.64-2.12-1.92,1.74-1.3,2.76.74,4,1l-.66.57c3.89,1.67,2.2,3.95,6.28,3.14,1.46-1.29,0-1-.09-2.53,1,.55,4.06-.86,5.1.56l-2.48.11c1.74.39,3.38.36,4.59.73-.13-.25-.23-.51-.6-.61,1.38.37,3.15.26,3.87.89l.37-1.08c-.82.46-3.27.67-3.7-.05.21-1.11,2.72-.33,3.81-.4-4.82-.37-4.92-2.62-9-2l.7.51c-2.51,1.06-5.16-1.11-7.38-1.3a.88.88,0,0,0,.43-1.31,29,29,0,0,1-7.4.2,36.09,36.09,0,0,0-7.92,0l-1.73-2.53-.07,1.85c-2.72.66-.64-2.68-2.41-2.64.68.05.56.35.71.84-3.22-2.44-1.73,1.66-3.53,1,.89,2.16,3.45.92,2.71,3.62-3.21-2.3-8.11-1.19-8.68-6.27-5.85,1.71-13.21-1.93-18.17-2.7-.65,1,.44.8.2,1.58-2-3.42-6.52,2.17-6.61-.83-.93.82-1.28,3.05-1.52,3.87a8.45,8.45,0,0,0-4.4-2.6l1.18.84-.12.42-1.68-1.19.06-.19c-4-.85-8.55,0-12.21-3.07,2.11,1.88-.45,3.7.55,4.85-1.92-4.78-6.31-4.56-9.85-3.77,0,1-.22,1.78.21,2.53l-2.1-1.75.3,1.14c-3.67,1.1-7.79-3.48-10.18-1.1,1.52.36,1.54,1.29,1.72,2.76a21.76,21.76,0,0,1-8.24-.72,1.55,1.55,0,0,1,.29.85c-.8.43-1.79-.52-2.63-.94l-.07,2.08c-1.6-.81-3.62.38-5.52-1.07-.7,2.24-4.59-1.66-6.74-.56-.84-.41,1.85,2.1-.48,2.14-.41-4.14-3,.09-3.28-4.34l-2,1.77-.49-2.15c-1.64,4.21-2.66-1.61-5.21-.1.15.45.43.58.3.89-.84-.38-2.76-.48-1.3-1.7-1.37.14-6-.41-3.91,1.61-.17-1.18,1.76-.33,2.6,0-.08,1.82-2.15,1.27-2.62,3.25a5.51,5.51,0,0,0-.55-.76l-.27,1.12c-2.61-1.77-5.2-.2-7.12-2.51-.1.54-.54,1-1.43.94l-.08-2.14-2.74.3,1.35,3c-3,.82-5.18-2.45-7.65-2.69-.57,3.42-4.83-.8-6.91,2.34l1.94.72c-4.13-.24-4.74,1.74-8.61,1,3.24-1.34,3.27-.66,8-3.79-4.73,1.81-8.26-.92-12.58,1.36.31.68,1.41,1,.36,1.89-.89-1.47-4.11.45-3.5-1.39-1.34.74-1.55,2.4-2.37,2.71q-2.3-.86-4.58-1.64l.14.32c-3.82,2.32-7.44,2-11.06,1.49s-7.26-1-11.12.12l.17.7-2-.83c1.54.52-.64,1-.74,1.59-1.67-.33-3.33-.64-5-.92C64.86,151.51,65.18,152.79,66.39,152.41Zm65.42-5.27,1.18.06a.6.6,0,0,1,.74,0l-.74,0C132.39,147.53,132,148.46,131.81,147.14Zm108.59.19c.59,1.27-.81.34-1.21.5l1.93.41C241.37,147.54,240.68,147.52,240.4,147.33ZM132.15,160.94l-.63,1.43-.87-1.12Zm-16.71.19,1.68.75-.14.27-1.66-.76ZM96.69,152a2,2,0,0,1,.32.2,1.12,1.12,0,0,1-.32-.2c-1.3-.71-1.78,1.33-2.86-.52C95.08,149.74,95.94,151.38,96.69,152ZM126,149.89c.56.23.84.35,1.24.18-.3-.82-1.44-2-.63-2.31.59.92,2.5,1,2.55,2.43C127.49,148.8,126.39,152.77,126,149.89Zm39.32-1.51-.42.21,1.56,1.21Zm7.17,1.23c.89,2.21,3.06,1.69,4.58,2.12.36-2-1.22-4.24-3-3.87C172,146.31,173.36,150.94,172.5,149.61Zm-59.26,3.65.45,1.11-.4.16,1.66.67c-2.13,1.65-3.74-1.19-4.86-1.6C111.06,153.64,113.76,156.29,113.24,153.26Zm74.49-3.51c1.55,1.41,4.33,3.2,4.12,5,0-3.37-2.21-4.78-2.89-4.71C188.56,150.26,188.27,150.09,187.73,149.75Zm0,6.19c-2.24-1.43-2.42-3-4.16-5.85,2.15-1.52,2.83,2.64,2.61,4.38,1.55,1.46,1.21-.64,2-1.08Zm-2.47-9.05-.89.51c-1,1.44-1.19,5-2.75,1.54l2.75-1.54A1,1,0,0,1,185.3,146.89Zm18.55-.94-.93-1.16c.9.08,1,.61.93,1.16l.78,1C202.68,148.26,203.67,147,203.85,146Zm-14.13,1.68-2.61-.15C187.29,149,188.9,148.1,189.72,147.63Zm13.61,1.44c-1.09.26-4,.84-3.56.6C200,147.83,202.61,148.07,203.33,149.07ZM261,153.69l-1.65-.15.76-1.71Zm-19.27,1.46.38-1.07,1,.16Zm-17.79.41a4.23,4.23,0,0,0-.14-1.72,1.71,1.71,0,0,1-.64-1c.24,0,.48.43.64,1a1.63,1.63,0,0,0,2.25-.5c-.31-1.17-1.4-.94-1.84-1.73,1.57-2.75,5.39,5.55,4.19-2.39.71,1,3.1,3,2.32,4.39-1.88-.45-5.39.42-6.78,1.95-.07.43-.22.77-.54.84A2.27,2.27,0,0,1,224,155.56ZM200,157.79a1.62,1.62,0,0,1-1.11-.7,3.16,3.16,0,0,1-.9-2.65c1.43,1,.55,1.92.9,2.65A2.37,2.37,0,0,0,200,157.79Zm-4.23.57,2.24,1.53-1.15-1.77,3.38,3.32C198.39,163.11,196.13,160.54,195.79,158.36Zm-.74,1.58-.49-1.94.73,2-.24,0,.11.44-3.73-1.08Zm-38-3c-1.28,5.41,3.36,3.81,4.13,6.48.12-1.83,1.47-4.74-2.15-4.62,3.09-1.91,2,3.56,3.8-1.11-1.49.38-3.32-1-3.59-1.16l1.76-.25C160,153,158.36,158.06,157.1,157Zm-19,1.19-2.32-.06,2.21.36Zm-57.35,2c.17.8-2.79,2.15-3.53.73C78.7,160.72,80.35,160.79,80.73,160.2Zm-24.67.08,2.63.48c-.48,1.36-2.34-.06-3.56.19C54.69,160.31,55.67,160.73,56.06,160.28Zm-17,.2-.83-.15.89,1Zm1.17,1.33c-.51.44,1.28.7,1.7.65Zm-15.3.38H26l-1-.66Zm1.72-.71c.27.47.17,1.12,2.67.88.1-.53-.59-.53.33-1.15a6,6,0,0,0-1.91.13c.56.09,1.22-.13,1.39.22a5.39,5.39,0,0,1-2.48-.08.73.73,0,0,0-.56-.39C26.11,161.24,26.32,161.37,26.66,161.48Zm9.08-.54a1.94,1.94,0,0,0,.74-.26l.15.16a.81.81,0,0,1-.89.1c-.37.09-.79.15-1.22.22-.27.5,1.46.88,1.92,1.19-.83-.18-1.54-.69-2.62-.4.15.15,0,.24.69.26l-1.49.06c-1.73-.71-.09-.88,1.5-1.11,0-.11.17-.23.47-.36A1.2,1.2,0,0,1,35.74,160.94Zm-12-.83.82.09c.42.15.16.31.31.42C23.87,160.59,22.61,160.37,23.7,160.11Zm49.15-1.65c-.54.29.74,1.33,2,1l-.63,1.39c-.05-.92-2.5-.77-2.78-.85C71,158.8,71.91,159.31,72.85,158.46Zm57.11-1.7c.5,2.66,3.59,1,4.3,1.69C132.64,159.08,129,159.75,130,156.76Zm5.4-1.27c.85,0,1.09-.26,1,1.13.43.57,1.09-.19,1.52.38-1.64,1.26-1.58-1-2.55-1.51a3.1,3.1,0,0,1-.8-.09A1,1,0,0,1,135.36,155.49Zm-33.38,1-1.17-1.58-1.77.23Zm-19.14-1.76c.16.79-1.88.92-2.31.56.15,1,1.52.82,2.61.88a1.35,1.35,0,0,0,.72.1,3.21,3.21,0,0,0-.72-.1c-.42-.23-.14-.78-.15-1.15l.54-.34L82,154.51Zm-33.56,1.41a2.41,2.41,0,0,1-2.18.33A3.35,3.35,0,0,1,49.28,156.16Zm43.65-3c-2,.7,1,1.68-.31,2.32l1.07-.17c-1.72,1.31-1.27-1.24-2.49-.82l.82-.27c.63-1.14-1.27-.67-1.45-1.51C91.52,152.16,93.75,152.84,92.93,153.13Zm-45.59,2.76c-2,.82-1.68-.54-2.92-.52C46,154.63,45.82,155.83,47.34,155.89ZM80,151.06l.12-.2-1.65-.39-.13.21Z"/><path class="cls-1" d="M45,162.58a3.3,3.3,0,0,1-1.11,0A6.89,6.89,0,0,1,45,162.58Z"/><path class="cls-1" d="M140.55,165.94a.85.85,0,0,1,.44-.74A1.08,1.08,0,0,1,140.55,165.94Z"/><path class="cls-1" d="M144.55,167h.15l.13.15Z"/><path class="cls-1" d="M283,157.28c.87.92-.81.27-1.5.34C282.14,157.53,282.39,156.78,283,157.28Z"/><path class="cls-1" d="M277.54,155.75a3,3,0,0,0,1.71.64A2.17,2.17,0,0,1,277.54,155.75Z"/><path class="cls-1" d="M282,156.07a7.91,7.91,0,0,1-2.7.32A5.78,5.78,0,0,1,282,156.07Z"/><path class="cls-1" d="M263,156.67c.87,1,2.48.4,2.48.4-3.52,1.17.76,1.93,1.07,2.61C264.37,159.54,264.33,158.23,263,156.67Z"/><path class="cls-1" d="M258.33,156.25a1.93,1.93,0,0,0,1-.25A1,1,0,0,1,258.33,156.25Z"/><path class="cls-1" d="M257,157.44c-1.23-.23-1.69-1.58-2.27-2.64,1.47-1,2.46,1.17,3.57,1.45C257.46,156.3,256.61,156.18,257,157.44Z"/><path class="cls-1" d="M219.36,167.48c.29.18,1,.13,1,1.13l-2.06.16C217.48,168.23,219,167.71,219.36,167.48Z"/><path class="cls-1" d="M211.69,162.84c-1.65-.12-.74,2.5-1.59,1.92l0-3.49Z"/><path class="cls-1" d="M212.25,145.19l.5.34-.56-.12Z"/><path class="cls-1" d="M203.84,166.44l1.21,3.86C203.65,169.31,203.58,166.23,203.84,166.44Z"/><polygon class="cls-1" points="197.62 168.98 198.61 170.18 195.57 168.98 197.62 168.98"/><polygon class="cls-1" points="190.03 166.97 189.78 167.74 187.69 166.74 190.03 166.97"/><path class="cls-1" d="M107.71,163c-.36-2,3-1.14,3.91-1.66C111,163.83,109,160.5,107.71,163Z"/><path class="cls-1" d="M47.8,162.19l3.16.3C48.53,162.86,50.28,162.47,47.8,162.19Z"/><path class="cls-2" d="M7.1,135.59l-2.49-1.2c1.45.4,2.91.83,4.36,1.28l-.46-2.19c1.49,2.07,6.63.05,10.75.29v-1.54l2.49.62-.84-1c2.48-.19,5.4,2.23,8.26.61-1.85.7-2.26-1.89-2.09-3.07q3.73,1,7.47,2.09c.17-1.13,3-1.89,1.64-2.87l-.44-.26a2.69,2.69,0,0,1,.44.26l2.47,1.49-.21-1.42c5.85-2.08,11.29-.83,16.72.35s10.85,2,16.71-2.42l-.21-.64q3.42,1.68,6.82,3.51c1.26-.58,1.64-3.88,3.69-5.3-1,3.66,3.94,0,5.2,3,1.62-1.63,0-2.41-.45-3.79a10.46,10.46,0,0,1,5.28-1.7c1.08-4.46,1.63-12.26,1.63-23.49V50q0-19.55-1.34-26.21a23.78,23.78,0,0,0-6.74-12.11Q80.36,6.25,70,3.87T30.32,1.49H0V136.05A39.86,39.86,0,0,0,7.1,135.59ZM40.52,25c4.42,0,7.44.41,9,1.23a5.76,5.76,0,0,1,3.08,3.87q.68,2.64.68,12V95.53q0,13.77-2,16.87t-10.78,3.1Z"/><path class="cls-2" d="M187.61,124.2c4.63,2.12,8.39,2,12.37,1.86-.2-2.94-.2-4.8-2.46-5.61,1.85-2.26,4.27-1.14,6.93.38s5.53,3.43,8.32,2.36l-.39-2.3,3.07,3.61c-.61-1.52-.18-3.12-.19-5.08a24.19,24.19,0,0,1,2.84-.57l0-72,11.73,71.56c5.27,5.58,11.9,4.3,17.64,6.14l.11-.44.72.71a12.66,12.66,0,0,1,6.5,5.42c.4-1.62,1-6.06,2.47-7.64,0,2.57,1.25,2,2.92,1.14l12-79,0,78.51c2.45,1,5.08,2.23,7.78,3.21,4.76,1.78,9.71,2.79,14.14,1.32.42,6.86,3.93,8.21,7.62,9.81h5.06c-.82-1.39-3-1.19-3.82-4.22,2.52,1.44.83-5.87,4.64-2.4v-1l-.31-.07a1,1,0,0,1,.31.06V0H255l-9.32,64.23-5.75-35Q237.44,12.41,235.1,0H182.68V127.5a3.41,3.41,0,0,1,1.22.55l.2-4.16c1.24.89,2.69,2.84,3.91,2a3.74,3.74,0,0,0-.4-1.7"/><path class="cls-2" d="M108.61,122.49c2.09.54,3.9,1.05,4.41-2.4,3.71.61,6.84,7.27,11.37,5.79l-1.88-6,4.13-.45,0,4.28a1.92,1.92,0,0,0,2.19-1.81c2.78,4.73,6.75,1.72,10.59,5.4l.47-2.23a11.41,11.41,0,0,1,.79,1.55c.8-3.94,3.89-2.72,4.09-6.36-1.25-.79-4.12-2.59-3.91-.22-3.12-4.14,3.89-2.8,6-3-2.26,2.36.63,2.67,1.87,3.47.21-.63-.21-.89-.4-1.8,3.89-2.89,5.16,8.8,7.83.46l.64,4.33,3.09-3.42c.2,8.85,4.32.54,4.74,8.83,3.51,0-.42-5.12.82-4.25,1.64-1,3.88.42,5.85,1.61.52.31,1,.59,1.47.81V110.5H148.12V.49H107.6V122.25C107.94,122.32,108.28,122.4,108.61,122.49Z"/></g></g></svg>